<svg width="449" height="56" viewBox="0 0 449 56" fill="none" xmlns="http://www.w3.org/2000/svg">
<rect x="244" y="12" width="182" height="18" fill="#C4C4C4"/>
<ellipse cx="231" cy="19" rx="20" ry="19" fill="#F3C42E"/>
<ellipse cx="426" cy="19" rx="20" ry="19" fill="#C4C4C4"/>
<rect x="49" y="12" width="182" height="18" fill="#F3C42E"/>
<ellipse cx="42" cy="19" rx="20" ry="19" fill="#F3C42E"/>
<path opacity="0.6" d="M37.6836 27V24.998L40.2129 24.6855V15.7012L37.6641 15.6719V13.7773L43.6309 12.7812V24.6855L46.1602 24.998V27H37.6836Z" fill="white"/>
<path d="M226.068 27V24.8027L230.648 19.9785C231.059 19.5098 231.384 19.0964 231.625 18.7383C231.866 18.3802 232.038 18.0514 232.143 17.752C232.253 17.4525 232.309 17.1628 232.309 16.8828C232.309 16.4206 232.185 16.0299 231.938 15.7109C231.69 15.3854 231.319 15.2227 230.824 15.2227C230.284 15.2227 229.883 15.4147 229.623 15.7988C229.363 16.1764 229.232 16.6875 229.232 17.332H225.883L225.863 17.2734C225.844 16.3945 226.033 15.6003 226.43 14.8906C226.833 14.181 227.413 13.6178 228.168 13.2012C228.923 12.7845 229.812 12.5762 230.834 12.5762C231.856 12.5762 232.732 12.7552 233.461 13.1133C234.197 13.4648 234.76 13.9629 235.15 14.6074C235.548 15.2454 235.746 15.9941 235.746 16.8535C235.746 17.4395 235.645 17.9798 235.443 18.4746C235.248 18.9629 234.923 19.487 234.467 20.0469C234.018 20.6068 233.415 21.2839 232.66 22.0781L230.512 24.3535L230.531 24.4023H233.354L233.5 23.2207H236.068V27H226.068Z" fill="white"/>
<path opacity="0.6" d="M426.607 27.2051C425.676 27.2051 424.817 27.0456 424.029 26.7266C423.248 26.401 422.626 25.9258 422.164 25.3008C421.702 24.6758 421.48 23.9108 421.5 23.0059L421.51 22.9473H424.85C424.85 23.2467 424.921 23.5234 425.064 23.7773C425.208 24.0247 425.41 24.2233 425.67 24.373C425.937 24.5228 426.249 24.5977 426.607 24.5977C427.167 24.5977 427.61 24.4349 427.936 24.1094C428.268 23.7839 428.434 23.3607 428.434 22.8398C428.434 22.306 428.255 21.8698 427.896 21.5312C427.538 21.1862 427.018 21.0137 426.334 21.0137H424.879V18.4844H426.432C426.816 18.4844 427.138 18.416 427.398 18.2793C427.665 18.1361 427.867 17.9408 428.004 17.6934C428.141 17.4395 428.209 17.1465 428.209 16.8145C428.209 16.3457 428.069 15.9583 427.789 15.6523C427.516 15.3464 427.122 15.1934 426.607 15.1934C426.314 15.1934 426.051 15.252 425.816 15.3691C425.589 15.4863 425.406 15.6491 425.27 15.8574C425.139 16.0592 425.074 16.2969 425.074 16.5703H421.744L421.725 16.5117C421.699 15.7305 421.891 15.0436 422.301 14.4512C422.717 13.8587 423.297 13.3997 424.039 13.0742C424.781 12.7422 425.624 12.5762 426.568 12.5762C428.092 12.5762 429.316 12.9277 430.24 13.6309C431.171 14.3275 431.637 15.3138 431.637 16.5898C431.637 17.2995 431.448 17.9082 431.07 18.416C430.699 18.9173 430.143 19.347 429.4 19.7051C430.149 19.985 430.745 20.4082 431.188 20.9746C431.637 21.541 431.861 22.2181 431.861 23.0059C431.861 23.8717 431.633 24.6204 431.178 25.252C430.722 25.877 430.097 26.3587 429.303 26.6973C428.515 27.0358 427.617 27.2051 426.607 27.2051Z" fill="white"/>
<path opacity="0.6" d="M0.315529 53V51.8989L1.13731 51.7002V46.4902L0.315529 46.2861V45.1797H1.13731H3.97861C4.68402 45.1797 5.30886 45.3444 5.85313 45.6738C6.3974 45.9997 6.8235 46.4526 7.13145 47.0327C7.43939 47.6092 7.59336 48.2752 7.59336 49.0308V49.1543C7.59336 49.9098 7.43939 50.5776 7.13145 51.1577C6.8235 51.7342 6.3974 52.1854 5.85313 52.5112C5.30886 52.8371 4.68402 53 3.97861 53H0.315529ZM3.02256 51.5713H3.88194C4.2794 51.5713 4.6124 51.471 4.88096 51.2705C5.14951 51.07 5.35182 50.7889 5.48789 50.4272C5.62754 50.062 5.69736 49.6377 5.69736 49.1543V49.0254C5.69736 48.542 5.62754 48.1195 5.48789 47.7578C5.35182 47.3962 5.14951 47.1151 4.88096 46.9146C4.6124 46.714 4.2794 46.6138 3.88194 46.6138H3.02256V51.5713ZM10.0643 53.1128C9.5021 53.1128 9.04377 52.9535 8.68928 52.6348C8.33479 52.3161 8.15754 51.8918 8.15754 51.3618C8.15754 51.0002 8.25422 50.6797 8.44758 50.4004C8.64452 50.1211 8.93814 49.9027 9.32844 49.7451C9.72232 49.584 10.2147 49.5034 10.8055 49.5034H11.4124V49.1597C11.4124 48.9269 11.3462 48.73 11.2137 48.5688C11.0812 48.4041 10.8717 48.3218 10.5853 48.3218C10.4635 48.3218 10.3489 48.3379 10.2415 48.3701C10.1377 48.3988 10.0428 48.4417 9.95686 48.499L9.82795 49.2402H8.50129L8.47444 47.6235C8.80386 47.4767 9.14761 47.3496 9.50569 47.2422C9.86734 47.1348 10.2702 47.0811 10.7142 47.0811C11.5055 47.0811 12.1339 47.2637 12.5994 47.6289C13.0649 47.9906 13.2977 48.508 13.2977 49.1812V51.3242C13.2977 51.4066 13.2977 51.4871 13.2977 51.5659C13.3013 51.6447 13.3102 51.7199 13.3245 51.7915L13.953 51.8989V53H11.7508C11.7043 52.9355 11.6541 52.8496 11.6004 52.7422C11.5467 52.6348 11.5091 52.5273 11.4876 52.4199C11.3122 52.6383 11.1152 52.8084 10.8968 52.9302C10.6784 53.0519 10.4009 53.1128 10.0643 53.1128ZM10.6444 51.7808C10.7804 51.7808 10.9165 51.7539 11.0526 51.7002C11.1922 51.6429 11.3122 51.5588 11.4124 51.4478V50.6099H10.827C10.5727 50.6099 10.3758 50.6654 10.2362 50.7764C10.1001 50.8874 10.0321 51.0342 10.0321 51.2168C10.0321 51.3923 10.0893 51.5301 10.2039 51.6304C10.3185 51.7306 10.4653 51.7808 10.6444 51.7808ZM16.3379 53.1128C15.8832 53.1128 15.4911 52.9928 15.1617 52.7529C14.8358 52.513 14.5852 52.1764 14.4097 51.7432C14.2378 51.3063 14.1519 50.7979 14.1519 50.2178V50.105C14.1519 49.4998 14.2396 48.9717 14.4151 48.5205C14.5905 48.0658 14.8394 47.7131 15.1617 47.4624C15.4875 47.2082 15.8724 47.0811 16.3164 47.0811C16.6244 47.0811 16.8894 47.1455 17.1114 47.2744C17.337 47.3997 17.5339 47.577 17.7022 47.8062V45.8994L16.8858 45.7275V44.6211H17.7022H19.5874V51.7271L20.2642 51.8989V53H17.9546L17.815 52.2803C17.6395 52.5524 17.4318 52.7601 17.1919 52.9033C16.952 53.043 16.6674 53.1128 16.3379 53.1128ZM16.9234 51.668C17.0809 51.668 17.2277 51.6375 17.3638 51.5767C17.4999 51.5158 17.6127 51.4245 17.7022 51.3027V48.9771C17.6127 48.8302 17.5017 48.7192 17.3692 48.644C17.2403 48.5653 17.0953 48.5259 16.9341 48.5259C16.7193 48.5259 16.5456 48.5921 16.4131 48.7246C16.2806 48.8571 16.184 49.0415 16.1231 49.2778C16.0658 49.5142 16.0372 49.7899 16.0372 50.105V50.2178C16.0372 50.6797 16.1016 51.0378 16.2305 51.292C16.3594 51.5426 16.5904 51.668 16.9234 51.668ZM23.2722 53.1128C22.6742 53.1128 22.1622 52.9893 21.7361 52.7422C21.3136 52.4915 20.9895 52.1442 20.7639 51.7002C20.5419 51.2526 20.4309 50.7352 20.4309 50.1479V50.0405C20.4309 49.4604 20.5419 48.9484 20.7639 48.5044C20.9895 48.0604 21.3136 47.7131 21.7361 47.4624C22.1586 47.2082 22.6671 47.0811 23.2615 47.0811C23.8595 47.0811 24.3679 47.2064 24.7869 47.457C25.2094 47.7077 25.5317 48.055 25.7537 48.499C25.9793 48.943 26.0921 49.4569 26.0921 50.0405V50.1479C26.0921 50.7316 25.9793 51.2472 25.7537 51.6948C25.5317 52.1388 25.2094 52.4862 24.7869 52.7368C24.3679 52.9875 23.863 53.1128 23.2722 53.1128ZM23.2722 51.6787C23.5014 51.6787 23.684 51.6178 23.8201 51.4961C23.9597 51.3708 24.06 51.1935 24.1209 50.9644C24.1853 50.7352 24.2175 50.4631 24.2175 50.1479V50.0405C24.2175 49.7362 24.1853 49.4712 24.1209 49.2456C24.06 49.0164 23.9597 48.8392 23.8201 48.7139C23.6804 48.585 23.4942 48.5205 23.2615 48.5205C23.0323 48.5205 22.8479 48.585 22.7083 48.7139C22.5686 48.8392 22.4684 49.0164 22.4075 49.2456C22.3466 49.4712 22.3162 49.7362 22.3162 50.0405V50.1479C22.3162 50.4666 22.3466 50.7406 22.4075 50.9697C22.4684 51.1989 22.5686 51.3743 22.7083 51.4961C22.8479 51.6178 23.0359 51.6787 23.2722 51.6787ZM29.0732 53.1128C28.6149 53.1128 28.187 53.0716 27.7895 52.9893C27.3957 52.9033 27.0394 52.7869 26.7207 52.6401L26.6992 50.8301H27.9722L28.187 51.6733C28.2622 51.7199 28.3589 51.7611 28.477 51.7969C28.5952 51.8291 28.7366 51.8452 28.9014 51.8452C29.2057 51.8452 29.4152 51.804 29.5298 51.7217C29.6444 51.6393 29.7016 51.5355 29.7016 51.4102C29.7016 51.2884 29.6354 51.1774 29.5029 51.0771C29.374 50.9733 29.0965 50.882 28.6704 50.8032C27.9901 50.6707 27.4888 50.4451 27.1665 50.1265C26.8442 49.8042 26.6831 49.4032 26.6831 48.9233C26.6831 48.5975 26.7583 48.2967 26.9087 48.021C27.0591 47.7453 27.3043 47.5233 27.6445 47.355C27.9883 47.1831 28.4466 47.0972 29.0195 47.0972C29.4564 47.0972 29.8717 47.1348 30.2656 47.21C30.6631 47.2852 30.9889 47.38 31.2431 47.4946L31.2378 49.2456H29.9702L29.8091 48.4937C29.7267 48.4364 29.6336 48.3934 29.5298 48.3647C29.4259 48.3361 29.3096 48.3218 29.1806 48.3218C28.9407 48.3218 28.7653 48.3647 28.6543 48.4507C28.5433 48.5366 28.4878 48.6476 28.4878 48.7837C28.4878 48.8625 28.5111 48.9412 28.5576 49.02C28.6077 49.0988 28.7044 49.174 28.8476 49.2456C28.9909 49.3172 29.2003 49.3835 29.4761 49.4443C30.1385 49.5911 30.6362 49.7952 30.9692 50.0566C31.3058 50.318 31.4741 50.7155 31.4741 51.249C31.4741 51.8219 31.2682 52.2767 30.8564 52.6133C30.4482 52.9463 29.8538 53.1128 29.0732 53.1128ZM36.5341 53.1128C36.0794 53.1128 35.6873 52.9928 35.3578 52.7529C35.032 52.513 34.7813 52.1764 34.6059 51.7432C34.434 51.3063 34.3481 50.7979 34.3481 50.2178V50.105C34.3481 49.4998 34.4358 48.9717 34.6113 48.5205C34.7867 48.0658 35.0356 47.7131 35.3578 47.4624C35.6837 47.2082 36.0686 47.0811 36.5126 47.0811C36.8206 47.0811 37.0855 47.1455 37.3075 47.2744C37.5331 47.3997 37.7301 47.577 37.8984 47.8062V45.8994L37.082 45.7275V44.6211H37.8984H39.7836V51.7271L40.4604 51.8989V53H38.1508L38.0112 52.2803C37.8357 52.5524 37.628 52.7601 37.3881 52.9033C37.1482 53.043 36.8635 53.1128 36.5341 53.1128ZM37.1196 51.668C37.2771 51.668 37.4239 51.6375 37.56 51.5767C37.6961 51.5158 37.8088 51.4245 37.8984 51.3027V48.9771C37.8088 48.8302 37.6978 48.7192 37.5654 48.644C37.4364 48.5653 37.2914 48.5259 37.1303 48.5259C36.9155 48.5259 36.7418 48.5921 36.6093 48.7246C36.4768 48.8571 36.3801 49.0415 36.3193 49.2778C36.262 49.5142 36.2333 49.7899 36.2333 50.105V50.2178C36.2333 50.6797 36.2978 51.0378 36.4267 51.292C36.5556 51.5426 36.7865 51.668 37.1196 51.668ZM42.5822 53.1128C42.02 53.1128 41.5617 52.9535 41.2072 52.6348C40.8527 52.3161 40.6754 51.8918 40.6754 51.3618C40.6754 51.0002 40.7721 50.6797 40.9655 50.4004C41.1624 50.1211 41.456 49.9027 41.8463 49.7451C42.2402 49.584 42.7326 49.5034 43.3234 49.5034H43.9303V49.1597C43.9303 48.9269 43.8641 48.73 43.7316 48.5688C43.5991 48.4041 43.3896 48.3218 43.1032 48.3218C42.9814 48.3218 42.8668 48.3379 42.7594 48.3701C42.6556 48.3988 42.5607 48.4417 42.4747 48.499L42.3458 49.2402H41.0192L40.9923 47.6235C41.3218 47.4767 41.6655 47.3496 42.0236 47.2422C42.3852 47.1348 42.7881 47.0811 43.2321 47.0811C44.0234 47.0811 44.6518 47.2637 45.1173 47.6289C45.5828 47.9906 45.8156 48.508 45.8156 49.1812V51.3242C45.8156 51.4066 45.8156 51.4871 45.8156 51.5659C45.8191 51.6447 45.8281 51.7199 45.8424 51.7915L46.4708 51.8989V53H44.2687C44.2221 52.9355 44.172 52.8496 44.1183 52.7422C44.0646 52.6348 44.027 52.5273 44.0055 52.4199C43.8301 52.6383 43.6331 52.8084 43.4147 52.9302C43.1963 53.0519 42.9188 53.1128 42.5822 53.1128ZM43.1622 51.7808C43.2983 51.7808 43.4344 51.7539 43.5704 51.7002C43.7101 51.6429 43.8301 51.5588 43.9303 51.4478V50.6099H43.3449C43.0906 50.6099 42.8937 50.6654 42.754 50.7764C42.618 50.8874 42.5499 51.0342 42.5499 51.2168C42.5499 51.3923 42.6072 51.5301 42.7218 51.6304C42.8364 51.7306 42.9832 51.7808 43.1622 51.7808ZM49.0172 53V51.8989L49.8282 51.7271V46.458L49.0172 46.2861V45.1797H55.2638V47.4355H53.8404L53.7974 46.6299H51.7135V48.2358H54.211V49.6807H51.7135V51.5444H53.8995L53.9425 50.7012H55.3497V53H49.0172ZM55.8226 53V51.8989L56.5101 51.7271V48.4668L55.6937 48.2949V47.1885H58.2771L58.3362 47.9619C58.526 47.6826 58.757 47.466 59.0291 47.312C59.3012 47.158 59.6163 47.0811 59.9744 47.0811C60.3361 47.0811 60.6458 47.1598 60.9036 47.3174C61.165 47.4714 61.3619 47.7077 61.4944 48.0264C61.6699 47.7256 61.8955 47.4928 62.1712 47.3281C62.4505 47.1634 62.7781 47.0811 63.1541 47.0811C63.7163 47.0811 64.1585 47.2708 64.4808 47.6504C64.803 48.0299 64.9642 48.6136 64.9642 49.4014V51.7271L65.6517 51.8989V53H62.5311V51.8989L63.0843 51.7271V49.4014C63.0843 49.0612 63.0306 48.8302 62.9231 48.7085C62.8193 48.5868 62.6671 48.5259 62.4666 48.5259C62.3019 48.5259 62.1533 48.5581 62.0208 48.6226C61.8883 48.6834 61.7719 48.7729 61.6717 48.8911V51.7271L62.1551 51.8989V53H59.3138V51.8989L59.7972 51.7271V49.4014C59.7972 49.0612 59.7452 48.8302 59.6414 48.7085C59.5376 48.5868 59.3818 48.5259 59.1741 48.5259C59.013 48.5259 58.8662 48.5581 58.7337 48.6226C58.6012 48.6834 58.4848 48.7747 58.3846 48.8965V51.7271L58.9378 51.8989V53H55.8226ZM65.8345 55.2344V54.1279L66.5542 53.9561V48.4668L65.7378 48.2949V47.1885H68.3213L68.3858 47.8438C68.5433 47.6003 68.7331 47.4123 68.9551 47.2798C69.1771 47.1473 69.4492 47.0811 69.7715 47.0811C70.2298 47.0811 70.6237 47.2082 70.9531 47.4624C71.2826 47.7131 71.535 48.0658 71.7105 48.5205C71.8895 48.9753 71.979 49.5034 71.979 50.105V50.2178C71.979 50.7979 71.8895 51.3063 71.7105 51.7432C71.535 52.1764 71.2808 52.513 70.9478 52.7529C70.6148 52.9928 70.2137 53.1128 69.7447 53.1128C69.4582 53.1128 69.2058 53.0591 68.9873 52.9517C68.7725 52.8442 68.5863 52.6867 68.4287 52.479V53.9561L69.084 54.1279V55.2344H65.8345ZM69.1861 51.6787C69.5262 51.6787 69.7626 51.5516 69.895 51.2974C70.0275 51.0396 70.0938 50.6797 70.0938 50.2178V50.105C70.0938 49.7863 70.0633 49.5088 70.0025 49.2725C69.9416 49.0361 69.8431 48.8535 69.7071 48.7246C69.5746 48.5921 69.3973 48.5259 69.1753 48.5259C69.0142 48.5259 68.8674 48.5617 68.7349 48.6333C68.606 48.7049 68.5039 48.8123 68.4287 48.9556V51.3242C68.5039 51.4424 68.6078 51.5319 68.7403 51.5928C68.8727 51.6501 69.0213 51.6787 69.1861 51.6787ZM72.5862 53V51.8989L73.2629 51.7271V48.4668L72.4573 48.2949V47.1885H75.0408L75.0837 47.8975L75.0945 48.0425C75.2234 47.7131 75.3827 47.4714 75.5725 47.3174C75.7659 47.1598 76.0058 47.0811 76.2922 47.0811C76.371 47.0811 76.4641 47.0882 76.5715 47.1025C76.6789 47.1133 76.7882 47.1348 76.8992 47.167L76.7112 48.8965L75.9055 48.8589C75.7193 48.8517 75.5725 48.8732 75.4651 48.9233C75.3612 48.9699 75.2556 49.0487 75.1482 49.1597V51.7271L75.8249 51.8989V53H72.5862ZM79.7944 53.1128C79.2251 53.1128 78.7273 52.991 78.3012 52.7476C77.8787 52.5005 77.5493 52.1639 77.313 51.7378C77.0802 51.3117 76.9638 50.8301 76.9638 50.293V50.0942C76.9638 49.5034 77.0677 48.9806 77.2754 48.5259C77.483 48.0711 77.7874 47.7166 78.1884 47.4624C78.5895 47.2046 79.0818 47.0775 79.6655 47.0811C80.1919 47.0811 80.6359 47.1831 80.9975 47.3872C81.3628 47.5877 81.6403 47.8849 81.83 48.2788C82.0198 48.6691 82.1147 49.1507 82.1147 49.7236V50.6958H78.9189L78.9135 50.7334C78.9422 50.916 79.0031 51.0789 79.0962 51.2222C79.1928 51.3618 79.3253 51.4728 79.4936 51.5552C79.6619 51.6375 79.8696 51.6787 80.1167 51.6787C80.3602 51.6787 80.5983 51.6519 80.831 51.5981C81.0673 51.5409 81.3162 51.4513 81.5776 51.3296L82.0073 52.4683C81.7459 52.6545 81.4272 52.8084 81.0512 52.9302C80.6753 53.0519 80.2563 53.1128 79.7944 53.1128ZM78.9189 49.5303H80.396V49.3906C80.396 49.1829 80.3745 49.0093 80.3315 48.8696C80.2921 48.73 80.2223 48.6243 80.122 48.5527C80.0218 48.4811 79.8839 48.4453 79.7085 48.4453C79.5187 48.4453 79.3665 48.4919 79.2519 48.585C79.1409 48.6745 79.0586 48.7998 79.0048 48.9609C78.9547 49.1185 78.9189 49.2993 78.8974 49.5034L78.9189 49.5303ZM85.1281 53.1128C84.6698 53.1128 84.2419 53.0716 83.8444 52.9893C83.4505 52.9033 83.0943 52.7869 82.7756 52.6401L82.7541 50.8301H84.027L84.2419 51.6733C84.3171 51.7199 84.4137 51.7611 84.5319 51.7969C84.6501 51.8291 84.7915 51.8452 84.9562 51.8452C85.2606 51.8452 85.4701 51.804 85.5846 51.7217C85.6992 51.6393 85.7565 51.5355 85.7565 51.4102C85.7565 51.2884 85.6903 51.1774 85.5578 51.0771C85.4289 50.9733 85.1514 50.882 84.7253 50.8032C84.0449 50.6707 83.5436 50.4451 83.2214 50.1265C82.8991 49.8042 82.738 49.4032 82.738 48.9233C82.738 48.5975 82.8132 48.2967 82.9636 48.021C83.1139 47.7453 83.3592 47.5233 83.6994 47.355C84.0431 47.1831 84.5015 47.0972 85.0744 47.0972C85.5112 47.0972 85.9266 47.1348 86.3205 47.21C86.7179 47.2852 87.0438 47.38 87.298 47.4946L87.2927 49.2456H86.0251L85.8639 48.4937C85.7816 48.4364 85.6885 48.3934 85.5846 48.3647C85.4808 48.3361 85.3644 48.3218 85.2355 48.3218C84.9956 48.3218 84.8202 48.3647 84.7092 48.4507C84.5982 48.5366 84.5427 48.6476 84.5427 48.7837C84.5427 48.8625 84.5659 48.9412 84.6125 49.02C84.6626 49.0988 84.7593 49.174 84.9025 49.2456C85.0457 49.3172 85.2552 49.3835 85.5309 49.4443C86.1934 49.5911 86.6911 49.7952 87.0241 50.0566C87.3607 50.318 87.529 50.7155 87.529 51.249C87.529 51.8219 87.3231 52.2767 86.9113 52.6133C86.5031 52.9463 85.9087 53.1128 85.1281 53.1128ZM89.914 53.1128C89.3518 53.1128 88.8935 52.9535 88.539 52.6348C88.1845 52.3161 88.0072 51.8918 88.0072 51.3618C88.0072 51.0002 88.1039 50.6797 88.2973 50.4004C88.4942 50.1211 88.7878 49.9027 89.1781 49.7451C89.572 49.584 90.0644 49.5034 90.6552 49.5034H91.2621V49.1597C91.2621 48.9269 91.1959 48.73 91.0634 48.5688C90.9309 48.4041 90.7214 48.3218 90.435 48.3218C90.3132 48.3218 90.1986 48.3379 90.0912 48.3701C89.9874 48.3988 89.8925 48.4417 89.8065 48.499L89.6776 49.2402H88.351L88.3241 47.6235C88.6535 47.4767 88.9973 47.3496 89.3554 47.2422C89.717 47.1348 90.1199 47.0811 90.5639 47.0811C91.3552 47.0811 91.9836 47.2637 92.4491 47.6289C92.9146 47.9906 93.1474 48.508 93.1474 49.1812V51.3242C93.1474 51.4066 93.1474 51.4871 93.1474 51.5659C93.1509 51.6447 93.1599 51.7199 93.1742 51.7915L93.8026 51.8989V53H91.6005C91.5539 52.9355 91.5038 52.8496 91.4501 52.7422C91.3964 52.6348 91.3588 52.5273 91.3373 52.4199C91.1618 52.6383 90.9649 52.8084 90.7465 52.9302C90.5281 53.0519 90.2506 53.1128 89.914 53.1128ZM90.494 51.7808C90.6301 51.7808 90.7662 51.7539 90.9022 51.7002C91.0419 51.6429 91.1618 51.5588 91.2621 51.4478V50.6099H90.6767C90.4224 50.6099 90.2255 50.6654 90.0858 50.7764C89.9498 50.8874 89.8817 51.0342 89.8817 51.2168C89.8817 51.3923 89.939 51.5301 90.0536 51.6304C90.1682 51.7306 90.315 51.7808 90.494 51.7808Z" fill="white"/>
<path d="M215.074 53.1128C214.329 53.1128 213.665 52.9624 213.081 52.6616C212.497 52.3608 212.039 51.9258 211.706 51.3564C211.373 50.7835 211.206 50.0889 211.206 49.2725V48.9126C211.206 48.1606 211.359 47.4964 211.663 46.9199C211.971 46.3398 212.408 45.8869 212.973 45.561C213.543 45.2316 214.218 45.0669 214.998 45.0669C215.543 45.0669 216.06 45.1403 216.551 45.2871C217.045 45.4303 217.503 45.6774 217.926 46.0283V48.0425H216.556L216.368 46.8877C216.246 46.8053 216.117 46.7337 215.981 46.6729C215.849 46.612 215.706 46.5654 215.552 46.5332C215.401 46.501 215.238 46.4849 215.063 46.4849C214.665 46.4849 214.318 46.5798 214.021 46.7695C213.724 46.9593 213.493 47.235 213.328 47.5967C213.167 47.9548 213.086 48.3898 213.086 48.9019V49.2725C213.086 49.7523 213.17 50.1748 213.339 50.54C213.507 50.9017 213.742 51.1846 214.042 51.3887C214.347 51.5928 214.698 51.6948 215.095 51.6948C215.306 51.6948 215.521 51.6733 215.74 51.6304C215.958 51.5838 216.169 51.5229 216.373 51.4478L216.561 50.3413H217.936V52.3125C217.625 52.5273 217.227 52.7153 216.744 52.8765C216.261 53.034 215.704 53.1128 215.074 53.1128ZM221.159 53.1128C220.561 53.1128 220.049 52.9893 219.623 52.7422C219.201 52.4915 218.877 52.1442 218.651 51.7002C218.429 51.2526 218.318 50.7352 218.318 50.1479V50.0405C218.318 49.4604 218.429 48.9484 218.651 48.5044C218.877 48.0604 219.201 47.7131 219.623 47.4624C220.046 47.2082 220.554 47.0811 221.148 47.0811C221.746 47.0811 222.255 47.2064 222.674 47.457C223.096 47.7077 223.419 48.055 223.641 48.499C223.866 48.943 223.979 49.4569 223.979 50.0405V50.1479C223.979 50.7316 223.866 51.2472 223.641 51.6948C223.419 52.1388 223.096 52.4862 222.674 52.7368C222.255 52.9875 221.75 53.1128 221.159 53.1128ZM221.159 51.6787C221.388 51.6787 221.571 51.6178 221.707 51.4961C221.847 51.3708 221.947 51.1935 222.008 50.9644C222.072 50.7352 222.105 50.4631 222.105 50.1479V50.0405C222.105 49.7362 222.072 49.4712 222.008 49.2456C221.947 49.0164 221.847 48.8392 221.707 48.7139C221.567 48.585 221.381 48.5205 221.148 48.5205C220.919 48.5205 220.735 48.585 220.595 48.7139C220.456 48.8392 220.355 49.0164 220.294 49.2456C220.234 49.4712 220.203 49.7362 220.203 50.0405V50.1479C220.203 50.4666 220.234 50.7406 220.294 50.9697C220.355 51.1989 220.456 51.3743 220.595 51.4961C220.735 51.6178 220.923 51.6787 221.159 51.6787ZM224.285 53V51.8989L224.962 51.7271V48.4668L224.157 48.2949V47.1885H226.745L226.81 47.9995C227.003 47.7095 227.24 47.4839 227.519 47.3228C227.802 47.1616 228.122 47.0811 228.48 47.0811C229.025 47.0811 229.454 47.2655 229.769 47.6343C230.084 48.0031 230.242 48.5885 230.242 49.3906V51.7271L230.919 51.8989V53H227.803V51.8989L228.351 51.7271V49.3853C228.351 49.0737 228.289 48.8535 228.163 48.7246C228.038 48.5921 227.859 48.5259 227.626 48.5259C227.451 48.5259 227.3 48.5581 227.175 48.6226C227.05 48.6834 226.941 48.7765 226.847 48.9019V51.7271L227.331 51.8989V53H224.285ZM233.325 53.1235C232.716 53.1235 232.253 52.9624 231.934 52.6401C231.619 52.3143 231.461 51.8005 231.461 51.0986V48.4883H230.736V47.1885H231.461V45.7544H233.336V47.1885H234.287V48.4883H233.336V51.0933C233.336 51.283 233.379 51.4155 233.465 51.4907C233.551 51.5659 233.669 51.6035 233.819 51.6035C233.884 51.6035 233.948 51.5999 234.013 51.5928C234.077 51.5856 234.142 51.5767 234.206 51.5659L234.335 52.9731C234.17 53.0197 234.004 53.0555 233.835 53.0806C233.671 53.1092 233.501 53.1235 233.325 53.1235ZM236.629 53.1128C236.066 53.1128 235.608 52.9535 235.254 52.6348C234.899 52.3161 234.722 51.8918 234.722 51.3618C234.722 51.0002 234.819 50.6797 235.012 50.4004C235.209 50.1211 235.502 49.9027 235.893 49.7451C236.287 49.584 236.779 49.5034 237.37 49.5034H237.977V49.1597C237.977 48.9269 237.911 48.73 237.778 48.5688C237.646 48.4041 237.436 48.3218 237.15 48.3218C237.028 48.3218 236.913 48.3379 236.806 48.3701C236.702 48.3988 236.607 48.4417 236.521 48.499L236.392 49.2402H235.066L235.039 47.6235C235.368 47.4767 235.712 47.3496 236.07 47.2422C236.432 47.1348 236.835 47.0811 237.279 47.0811C238.07 47.0811 238.698 47.2637 239.164 47.6289C239.629 47.9906 239.862 48.508 239.862 49.1812V51.3242C239.862 51.4066 239.862 51.4871 239.862 51.5659C239.866 51.6447 239.875 51.7199 239.889 51.7915L240.517 51.8989V53H238.315C238.269 52.9355 238.218 52.8496 238.165 52.7422C238.111 52.6348 238.073 52.5273 238.052 52.4199C237.877 52.6383 237.68 52.8084 237.461 52.9302C237.243 53.0519 236.965 53.1128 236.629 53.1128ZM237.209 51.7808C237.345 51.7808 237.481 51.7539 237.617 51.7002C237.757 51.6429 237.877 51.5588 237.977 51.4478V50.6099H237.391C237.137 50.6099 236.94 50.6654 236.801 50.7764C236.664 50.8874 236.596 51.0342 236.596 51.2168C236.596 51.3923 236.654 51.5301 236.768 51.6304C236.883 51.7306 237.03 51.7808 237.209 51.7808ZM242.811 53.1235C242.202 53.1235 241.739 52.9624 241.42 52.6401C241.105 52.3143 240.947 51.8005 240.947 51.0986V48.4883H240.222V47.1885H240.947V45.7544H242.822V47.1885H243.772V48.4883H242.822V51.0933C242.822 51.283 242.865 51.4155 242.951 51.4907C243.037 51.5659 243.155 51.6035 243.305 51.6035C243.37 51.6035 243.434 51.5999 243.498 51.5928C243.563 51.5856 243.627 51.5767 243.692 51.5659L243.821 52.9731C243.656 53.0197 243.49 53.0555 243.321 53.0806C243.157 53.1092 242.986 53.1235 242.811 53.1235ZM246.84 53.1128C246.242 53.1128 245.729 52.9893 245.303 52.7422C244.881 52.4915 244.557 52.1442 244.331 51.7002C244.109 51.2526 243.998 50.7352 243.998 50.1479V50.0405C243.998 49.4604 244.109 48.9484 244.331 48.5044C244.557 48.0604 244.881 47.7131 245.303 47.4624C245.726 47.2082 246.234 47.0811 246.829 47.0811C247.427 47.0811 247.935 47.2064 248.354 47.457C248.777 47.7077 249.099 48.055 249.321 48.499C249.547 48.943 249.659 49.4569 249.659 50.0405V50.1479C249.659 50.7316 249.547 51.2472 249.321 51.6948C249.099 52.1388 248.777 52.4862 248.354 52.7368C247.935 52.9875 247.43 53.1128 246.84 53.1128ZM246.84 51.6787C247.069 51.6787 247.251 51.6178 247.387 51.4961C247.527 51.3708 247.627 51.1935 247.688 50.9644C247.753 50.7352 247.785 50.4631 247.785 50.1479V50.0405C247.785 49.7362 247.753 49.4712 247.688 49.2456C247.627 49.0164 247.527 48.8392 247.387 48.7139C247.248 48.585 247.062 48.5205 246.829 48.5205C246.6 48.5205 246.415 48.585 246.276 48.7139C246.136 48.8392 246.036 49.0164 245.975 49.2456C245.914 49.4712 245.883 49.7362 245.883 50.0405V50.1479C245.883 50.4666 245.914 50.7406 245.975 50.9697C246.036 51.1989 246.136 51.3743 246.276 51.4961C246.415 51.6178 246.603 51.6787 246.84 51.6787Z" fill="white"/>
<path opacity="0.6" d="M407.396 53.1128C406.652 53.1128 405.987 52.9624 405.404 52.6616C404.82 52.3608 404.362 51.9258 404.029 51.3564C403.696 50.7835 403.529 50.0889 403.529 49.2725V48.9126C403.529 48.1606 403.681 47.4964 403.986 46.9199C404.294 46.3398 404.731 45.8869 405.296 45.561C405.866 45.2316 406.541 45.0669 407.321 45.0669C407.866 45.0669 408.383 45.1403 408.874 45.2871C409.368 45.4303 409.826 45.6774 410.249 46.0283V48.0425H408.879L408.691 46.8877C408.569 46.8053 408.44 46.7337 408.304 46.6729C408.172 46.612 408.028 46.5654 407.874 46.5332C407.724 46.501 407.561 46.4849 407.386 46.4849C406.988 46.4849 406.641 46.5798 406.344 46.7695C406.047 46.9593 405.816 47.235 405.651 47.5967C405.49 47.9548 405.409 48.3898 405.409 48.9019V49.2725C405.409 49.7523 405.493 50.1748 405.662 50.54C405.83 50.9017 406.064 51.1846 406.365 51.3887C406.67 51.5928 407.02 51.6948 407.418 51.6948C407.629 51.6948 407.844 51.6733 408.062 51.6304C408.281 51.5838 408.492 51.5229 408.696 51.4478L408.884 50.3413H410.259V52.3125C409.948 52.5273 409.55 52.7153 409.067 52.8765C408.583 53.034 408.027 53.1128 407.396 53.1128ZM412.607 53.1128C412.044 53.1128 411.586 52.9535 411.232 52.6348C410.877 52.3161 410.7 51.8918 410.7 51.3618C410.7 51.0002 410.797 50.6797 410.99 50.4004C411.187 50.1211 411.481 49.9027 411.871 49.7451C412.265 49.584 412.757 49.5034 413.348 49.5034H413.955V49.1597C413.955 48.9269 413.889 48.73 413.756 48.5688C413.624 48.4041 413.414 48.3218 413.128 48.3218C413.006 48.3218 412.891 48.3379 412.784 48.3701C412.68 48.3988 412.585 48.4417 412.499 48.499L412.37 49.2402H411.044L411.017 47.6235C411.346 47.4767 411.69 47.3496 412.048 47.2422C412.41 47.1348 412.813 47.0811 413.257 47.0811C414.048 47.0811 414.676 47.2637 415.142 47.6289C415.607 47.9906 415.84 48.508 415.84 49.1812V51.3242C415.84 51.4066 415.84 51.4871 415.84 51.5659C415.844 51.6447 415.853 51.7199 415.867 51.7915L416.495 51.8989V53H414.293C414.247 52.9355 414.196 52.8496 414.143 52.7422C414.089 52.6348 414.051 52.5273 414.03 52.4199C413.855 52.6383 413.658 52.8084 413.439 52.9302C413.221 53.0519 412.943 53.1128 412.607 53.1128ZM413.187 51.7808C413.323 51.7808 413.459 51.7539 413.595 51.7002C413.735 51.6429 413.855 51.5588 413.955 51.4478V50.6099H413.369C413.115 50.6099 412.918 50.6654 412.779 50.7764C412.642 50.8874 412.574 51.0342 412.574 51.2168C412.574 51.3923 412.632 51.5301 412.746 51.6304C412.861 51.7306 413.008 51.7808 413.187 51.7808ZM418.88 53.1128C418.426 53.1128 418.033 52.9928 417.704 52.7529C417.378 52.513 417.128 52.1764 416.952 51.7432C416.78 51.3063 416.694 50.7979 416.694 50.2178V50.105C416.694 49.4998 416.782 48.9717 416.957 48.5205C417.133 48.0658 417.382 47.7131 417.704 47.4624C418.03 47.2082 418.415 47.0811 418.859 47.0811C419.167 47.0811 419.432 47.1455 419.654 47.2744C419.879 47.3997 420.076 47.577 420.245 47.8062V45.8994L419.428 45.7275V44.6211H420.245H422.13V51.7271L422.807 51.8989V53H420.497L420.357 52.2803C420.182 52.5524 419.974 52.7601 419.734 52.9033C419.494 53.043 419.21 53.1128 418.88 53.1128ZM419.466 51.668C419.623 51.668 419.77 51.6375 419.906 51.5767C420.042 51.5158 420.155 51.4245 420.245 51.3027V48.9771C420.155 48.8302 420.044 48.7192 419.912 48.644C419.783 48.5653 419.638 48.5259 419.476 48.5259C419.262 48.5259 419.088 48.5921 418.955 48.7246C418.823 48.8571 418.726 49.0415 418.665 49.2778C418.608 49.5142 418.58 49.7899 418.58 50.105V50.2178C418.58 50.6797 418.644 51.0378 418.773 51.292C418.902 51.5426 419.133 51.668 419.466 51.668ZM424.928 53.1128C424.366 53.1128 423.908 52.9535 423.553 52.6348C423.199 52.3161 423.022 51.8918 423.022 51.3618C423.022 51.0002 423.118 50.6797 423.312 50.4004C423.509 50.1211 423.802 49.9027 424.193 49.7451C424.586 49.584 425.079 49.5034 425.67 49.5034H426.277V49.1597C426.277 48.9269 426.21 48.73 426.078 48.5688C425.945 48.4041 425.736 48.3218 425.449 48.3218C425.328 48.3218 425.213 48.3379 425.106 48.3701C425.002 48.3988 424.907 48.4417 424.821 48.499L424.692 49.2402H423.365L423.339 47.6235C423.668 47.4767 424.012 47.3496 424.37 47.2422C424.731 47.1348 425.134 47.0811 425.578 47.0811C426.37 47.0811 426.998 47.2637 427.464 47.6289C427.929 47.9906 428.162 48.508 428.162 49.1812V51.3242C428.162 51.4066 428.162 51.4871 428.162 51.5659C428.165 51.6447 428.174 51.7199 428.189 51.7915L428.817 51.8989V53H426.615C426.568 52.9355 426.518 52.8496 426.464 52.7422C426.411 52.6348 426.373 52.5273 426.352 52.4199C426.176 52.6383 425.979 52.8084 425.761 52.9302C425.542 53.0519 425.265 53.1128 424.928 53.1128ZM425.508 51.7808C425.645 51.7808 425.781 51.7539 425.917 51.7002C426.056 51.6429 426.176 51.5588 426.277 51.4478V50.6099H425.691C425.437 50.6099 425.24 50.6654 425.1 50.7764C424.964 50.8874 424.896 51.0342 424.896 51.2168C424.896 51.3923 424.953 51.5301 425.068 51.6304C425.183 51.7306 425.329 51.7808 425.508 51.7808ZM431.573 53.1128C431.114 53.1128 430.686 53.0716 430.289 52.9893C429.895 52.9033 429.539 52.7869 429.22 52.6401L429.199 50.8301H430.472L430.686 51.6733C430.762 51.7199 430.858 51.7611 430.976 51.7969C431.095 51.8291 431.236 51.8452 431.401 51.8452C431.705 51.8452 431.915 51.804 432.029 51.7217C432.144 51.6393 432.201 51.5355 432.201 51.4102C432.201 51.2884 432.135 51.1774 432.002 51.0771C431.873 50.9733 431.596 50.882 431.17 50.8032C430.489 50.6707 429.988 50.4451 429.666 50.1265C429.344 49.8042 429.182 49.4032 429.182 48.9233C429.182 48.5975 429.258 48.2967 429.408 48.021C429.558 47.7453 429.804 47.5233 430.144 47.355C430.488 47.1831 430.946 47.0972 431.519 47.0972C431.956 47.0972 432.371 47.1348 432.765 47.21C433.162 47.2852 433.488 47.38 433.743 47.4946L433.737 49.2456H432.47L432.308 48.4937C432.226 48.4364 432.133 48.3934 432.029 48.3647C431.925 48.3361 431.809 48.3218 431.68 48.3218C431.44 48.3218 431.265 48.3647 431.154 48.4507C431.043 48.5366 430.987 48.6476 430.987 48.7837C430.987 48.8625 431.01 48.9412 431.057 49.02C431.107 49.0988 431.204 49.174 431.347 49.2456C431.49 49.3172 431.7 49.3835 431.975 49.4443C432.638 49.5911 433.136 49.7952 433.469 50.0566C433.805 50.318 433.973 50.7155 433.973 51.249C433.973 51.8219 433.768 52.2767 433.356 52.6133C432.948 52.9463 432.353 53.1128 431.573 53.1128ZM436.799 53.1235C436.19 53.1235 435.726 52.9624 435.408 52.6401C435.093 52.3143 434.935 51.8005 434.935 51.0986V48.4883H434.21V47.1885H434.935V45.7544H436.81V47.1885H437.76V48.4883H436.81V51.0933C436.81 51.283 436.853 51.4155 436.939 51.4907C437.024 51.5659 437.143 51.6035 437.293 51.6035C437.358 51.6035 437.422 51.5999 437.486 51.5928C437.551 51.5856 437.615 51.5767 437.68 51.5659L437.809 52.9731C437.644 53.0197 437.477 53.0555 437.309 53.0806C437.144 53.1092 436.974 53.1235 436.799 53.1235ZM438.314 53V51.8989L438.991 51.7271V48.4668L438.185 48.2949V47.1885H440.768L440.811 47.8975L440.822 48.0425C440.951 47.7131 441.11 47.4714 441.3 47.3174C441.493 47.1598 441.733 47.0811 442.02 47.0811C442.099 47.0811 442.192 47.0882 442.299 47.1025C442.407 47.1133 442.516 47.1348 442.627 47.167L442.439 48.8965L441.633 48.8589C441.447 48.8517 441.3 48.8732 441.193 48.9233C441.089 48.9699 440.983 49.0487 440.876 49.1597V51.7271L441.553 51.8989V53H438.314ZM445.517 53.1128C444.919 53.1128 444.407 52.9893 443.98 52.7422C443.558 52.4915 443.234 52.1442 443.008 51.7002C442.786 51.2526 442.675 50.7352 442.675 50.1479V50.0405C442.675 49.4604 442.786 48.9484 443.008 48.5044C443.234 48.0604 443.558 47.7131 443.98 47.4624C444.403 47.2082 444.911 47.0811 445.506 47.0811C446.104 47.0811 446.612 47.2064 447.031 47.457C447.454 47.7077 447.776 48.055 447.998 48.499C448.224 48.943 448.336 49.4569 448.336 50.0405V50.1479C448.336 50.7316 448.224 51.2472 447.998 51.6948C447.776 52.1388 447.454 52.4862 447.031 52.7368C446.612 52.9875 446.107 53.1128 445.517 53.1128ZM445.517 51.6787C445.746 51.6787 445.928 51.6178 446.064 51.4961C446.204 51.3708 446.304 51.1935 446.365 50.9644C446.43 50.7352 446.462 50.4631 446.462 50.1479V50.0405C446.462 49.7362 446.43 49.4712 446.365 49.2456C446.304 49.0164 446.204 48.8392 446.064 48.7139C445.925 48.585 445.739 48.5205 445.506 48.5205C445.277 48.5205 445.092 48.585 444.953 48.7139C444.813 48.8392 444.713 49.0164 444.652 49.2456C444.591 49.4712 444.561 49.7362 444.561 50.0405V50.1479C444.561 50.4666 444.591 50.7406 444.652 50.9697C444.713 51.1989 444.813 51.3743 444.953 51.4961C445.092 51.6178 445.28 51.6787 445.517 51.6787Z" fill="white"/>
</svg>
