<svg width="140" height="67" viewBox="0 0 140 67" fill="none" xmlns="http://www.w3.org/2000/svg">
<path d="M139.998 27.0771C139.201 28.7313 137.839 29.0616 136.11 29.0094C132.508 28.9024 128.901 29.0046 125.299 28.9571C124.464 28.9452 124.25 29.171 124.255 30.0028C124.286 38.592 124.279 47.1788 124.272 55.768C124.269 57.6289 122.985 58.7887 121.143 58.6271C119.631 58.4964 118.727 57.4744 118.72 55.806C118.706 52.0058 118.715 48.2079 118.715 44.4076C118.715 39.6971 118.675 34.9866 118.746 30.2785C118.763 29.1472 118.401 28.9214 117.362 28.9523C114.92 29.026 112.476 28.9761 109.965 28.9761C111.615 26.9987 111.601 25.8959 109.908 24.1634C110.317 23.921 110.743 24.0327 111.135 24.0303C119.452 24.0232 127.772 24.0517 136.089 24.0041C137.951 23.9946 139.42 24.3725 140 26.3618C139.998 26.6018 139.998 26.8395 139.998 27.0771Z" fill="#492782"/>
<path d="M0 14.488C1.57878 13.2094 1.97585 13.2379 3.46428 14.7233C6.23427 17.4921 9.00189 20.2633 11.779 23.0249C12.4257 23.669 12.5613 24.3772 12.1262 25.171C11.7172 25.9197 11.0229 26.0052 10.2739 25.8698C9.81743 25.7866 9.55351 25.4016 9.24679 25.0997C6.16294 22.041 3.08147 18.9775 0 15.914C0 15.4387 0 14.9633 0 14.488Z" fill="#F3C42E"/>
<path d="M23.0538 0C23.3462 0.306587 23.8289 0.308964 24.0809 0.727254C24.5517 1.51155 24.3876 2.524 23.6363 3.02785C22.8992 3.52219 21.9363 3.36533 21.4227 2.6666C20.8925 1.94647 21.0399 0.879359 21.7532 0.344614C21.9339 0.209145 22.1455 0.114079 22.3428 0.00237625C22.5782 -3.98859e-07 22.816 0 23.0538 0Z" fill="#F3C42E"/>
<path d="M15.2002 0.230535C15.2216 0.154482 15.2264 0.0784293 15.2097 0C15.6852 0 16.1608 0 16.6363 0C16.6268 0.0760526 16.6339 0.149728 16.6553 0.223404C16.1727 0.639317 15.6876 0.634565 15.2002 0.230535Z" fill="#F3C42E"/>
<path d="M45.4423 43.3833C45.4566 44.0939 45.2331 44.5954 44.6315 44.9115C44.0466 45.2157 43.4783 45.2085 42.9481 44.8402C42.6271 44.6168 42.3537 44.3197 42.0755 44.0416C29.897 31.8756 17.7186 19.7048 5.54012 7.53634C5.28809 7.28442 5.00277 7.05151 4.81493 6.7568C4.36555 6.05569 4.33464 5.32844 4.93381 4.68912C5.52348 4.05931 6.2558 3.98326 6.98575 4.39679C7.35429 4.60594 7.65625 4.9458 7.96297 5.25239C20.1153 17.3899 32.2652 29.5322 44.4151 41.6745C44.9144 42.1736 45.5231 42.6156 45.4423 43.3833Z" fill="#F3C42E"/>
<path d="M47.1778 41.318C46.2173 41.3322 45.7726 40.807 45.2947 40.3293C39.6382 34.6752 33.9794 29.0236 28.3205 23.3695C23.2227 18.2764 18.125 13.1832 13.0296 8.08772C12.7515 7.80965 12.44 7.54109 12.2355 7.21074C11.7837 6.48823 11.8456 5.73008 12.4566 5.15256C13.101 4.54414 13.8809 4.53701 14.6346 5.02185C14.7986 5.12642 14.9294 5.28565 15.0673 5.4235C25.9927 16.3371 36.9158 27.253 47.8388 38.1665C48.3857 38.7132 48.8731 39.2836 48.5807 40.1415C48.3263 40.9044 47.7675 41.2728 47.1778 41.318Z" fill="#F3C42E"/>
<path d="M35.3229 40.3174C35.2682 40.9116 34.9686 41.4178 34.4027 41.7054C33.8416 41.9929 33.2519 41.9715 32.7217 41.5889C32.5006 41.4273 32.3127 41.2181 32.1154 41.0233C23.1587 32.0752 14.202 23.1271 5.25002 14.1743C4.97421 13.8986 4.69602 13.6015 4.50581 13.2664C4.11825 12.5819 4.34175 11.9426 4.85295 11.434C5.338 10.9516 5.93717 10.8232 6.60054 11.1084C7.02139 11.289 7.29245 11.6289 7.59917 11.9331C16.5297 20.8527 25.4555 29.7746 34.3861 38.6918C34.8402 39.1386 35.3134 39.5664 35.3229 40.3174Z" fill="#F3C42E"/>
<path d="M52.3156 29.4419C52.3322 30.7395 51.0411 31.5167 49.9046 30.8726C49.6026 30.7015 49.3435 30.4401 49.0938 30.1905C41.2832 22.3904 33.4725 14.5878 25.6666 6.78293C25.4431 6.55952 25.1982 6.34563 25.0317 6.08182C24.58 5.35932 24.6228 4.64157 25.2291 4.02364C25.7974 3.44136 26.4893 3.38908 27.1859 3.75746C27.4926 3.91907 27.7589 4.17812 28.0086 4.4253C35.8216 12.2231 43.6275 20.028 51.4382 27.8281C51.8947 28.2844 52.337 28.736 52.3156 29.4419Z" fill="#F3C42E"/>
<path d="M111.276 45.47C111.276 48.398 111.285 51.3237 111.273 54.2493C111.266 56.0389 110.227 57.1108 108.532 57.1227C106.867 57.1346 105.748 56.0342 105.743 54.2731C105.724 48.379 105.724 42.4873 105.743 36.5932C105.748 34.825 106.846 33.7294 108.506 33.727C110.253 33.7246 111.271 34.8012 111.276 36.6883C111.283 39.6163 111.276 42.542 111.276 45.47Z" fill="#492782"/>
<path d="M31.5589 1.62799C31.9631 1.58997 32.3792 1.84665 32.7643 2.23166C40.2374 9.70621 47.7176 17.176 55.1858 24.6529C56.0394 25.5085 56.0989 26.4616 55.4188 27.1698C54.6913 27.9279 53.7212 27.8828 52.8153 26.982C45.3589 19.5455 37.9144 12.0995 30.4675 4.65346C29.9064 4.09257 29.545 3.45088 29.9206 2.63331C30.2083 2.00588 30.6886 1.64225 31.5589 1.62799Z" fill="#F3C42E"/>
<path d="M15.2006 0.230519C15.6857 0.228143 16.1707 0.225765 16.6558 0.223389C16.9577 0.475313 17.2811 0.703471 17.5569 0.979162C23.3251 6.73302 29.0863 12.4916 34.8474 18.2526C35.1541 18.5592 35.5012 18.8349 35.6391 19.2698C35.865 19.9804 35.7271 20.6079 35.147 21.088C34.5668 21.568 33.9153 21.5918 33.2686 21.2329C33.0332 21.1022 32.8406 20.8859 32.6456 20.6911C26.7966 14.8493 20.9475 9.00985 15.1055 3.1633C13.9452 2.00112 13.9833 1.22396 15.2006 0.230519Z" fill="#F3C42E"/>
<path d="M21.7938 33.727C22.3145 33.6913 22.6997 33.9409 23.0492 34.2902C27.3814 38.6228 31.7206 42.9483 36.0456 47.2905C36.7851 48.032 36.7851 49.0872 36.1241 49.7146C35.4845 50.3207 34.4906 50.3112 33.7868 49.6125C29.4143 45.2632 25.0584 40.8973 20.6906 36.5433C20.1461 35.999 20.0391 35.3787 20.303 34.699C20.5622 34.0359 21.1067 33.7555 21.7938 33.727Z" fill="#F3C42E"/>
<path d="M46.9548 10.2291C47.5848 10.2386 48.02 10.5499 48.4242 10.9539C51.8028 14.3383 55.191 17.7131 58.5697 21.0998C59.4185 21.9507 59.5113 22.9061 58.8526 23.6143C58.1584 24.3606 57.1383 24.3392 56.2253 23.4408C53.4648 20.7243 50.7329 17.9793 47.9986 15.2343C47.2187 14.4524 46.4507 13.6562 45.7184 12.8291C45.288 12.3419 45.2714 11.7382 45.5638 11.1655C45.8539 10.5951 46.3603 10.3099 46.9548 10.2291Z" fill="#F3C42E"/>
<path d="M42.0372 26.1597C42.6221 26.1882 43.0501 26.4473 43.4258 26.8228C45.7749 29.1757 48.1383 31.5143 50.4756 33.8791C51.2935 34.7061 51.3125 35.5689 50.6183 36.2842C49.8931 37.0329 48.9943 37.0115 48.1265 36.1535C45.763 33.8149 43.4187 31.4573 41.0671 29.1068C40.525 28.5625 40.2564 27.9517 40.5868 27.1793C40.8745 26.521 41.4167 26.2643 42.0372 26.1597Z" fill="#F3C42E"/>
<path d="M32.0935 54.2778C31.5942 54.2208 31.1424 54.0235 30.7596 53.6385C28.974 51.8441 27.1669 50.0688 25.3932 48.2625C24.5562 47.4093 24.5087 46.4301 25.1863 45.7314C25.8972 44.9994 26.8959 45.0754 27.7946 45.9643C29.5945 47.7468 31.3802 49.5412 33.1706 51.3308C33.7246 51.8845 33.9219 52.5191 33.6128 53.2725C33.3346 53.9427 32.7878 54.1946 32.0935 54.2778Z" fill="#F3C42E"/>
<path d="M29.5022 55.3853C29.4998 56.6782 28.1374 57.5219 27.0984 56.74C25.4934 55.5303 24.1215 54.0354 22.8138 52.5096C22.3121 51.9226 22.431 51.143 22.9731 50.556C23.5461 49.9333 24.3402 49.7242 24.9965 50.2518C26.5658 51.5114 27.9472 52.9802 29.2787 54.4893C29.5022 54.7389 29.5069 55.0669 29.5022 55.3853Z" fill="#F3C42E"/>
<path d="M59.2419 16.097C59.268 17.0667 58.607 17.7845 57.6726 17.8058C56.7953 17.8249 56.0938 17.1618 56.0558 16.2777C56.013 15.289 56.6336 14.5594 57.5585 14.5118C58.4858 14.4595 59.2157 15.1488 59.2419 16.097Z" fill="#F3C42E"/>
<path d="M39.895 23.8259C39.8713 24.7219 39.0938 25.442 38.1831 25.4135C37.2439 25.3826 36.5187 24.6315 36.6162 23.7142C36.7185 22.7659 37.2725 22.2097 38.2473 22.1741C39.1556 22.1432 39.9188 22.9346 39.895 23.8259Z" fill="#F3C42E"/>
<path d="M44.817 8.05447C44.8122 8.94571 44.0252 9.71337 43.136 9.69198C42.3204 9.67296 41.581 8.90768 41.5667 8.06873C41.5501 7.10856 42.2158 6.42409 43.174 6.4122C44.0966 6.4027 44.8217 7.1252 44.817 8.05447Z" fill="#F3C42E"/>
<path d="M4.32749 23.0226C4.30609 23.9875 3.59517 24.691 2.68214 24.6553C1.75722 24.6197 1.10811 23.89 1.13665 22.918C1.1628 22.0196 1.8238 21.3803 2.72731 21.3756C3.67838 21.3732 4.34889 22.06 4.32749 23.0226Z" fill="#F3C42E"/>
<path d="M37.2245 42.4849C38.2089 42.5063 38.8247 43.1694 38.7676 44.1628C38.7082 45.1658 38.0995 45.6482 37.1603 45.6981C36.2782 45.7457 35.4912 44.9162 35.5031 44.044C35.515 43.167 36.2925 42.4635 37.2245 42.4849Z" fill="#F3C42E"/>
<path d="M94.9807 42.0904C95.3778 41.7981 95.6464 41.577 95.9365 41.3893C99.5387 39.0554 99.3104 33.6652 96.9399 31.2363C95.1971 29.4514 92.9763 28.8572 90.5653 28.8525C84.7424 28.8382 78.9195 28.8453 73.0965 28.8501C70.8045 28.8501 69.9247 29.72 69.92 31.9944C69.9128 34.4875 69.8891 36.983 69.9366 39.4761C69.9509 40.2152 69.7393 40.441 69.0069 40.3958C68.101 40.3388 67.1809 40.3412 66.2774 40.4315C64.8674 40.5693 64.0019 41.6246 64.0519 43.022C64.0994 44.3839 65.0814 45.325 66.5223 45.3654C67.314 45.3868 68.1129 45.4272 68.8976 45.3535C69.744 45.2727 69.9533 45.5746 69.939 46.3992C69.8891 49.4865 69.9033 52.5738 69.9247 55.661C69.9366 57.377 70.8758 58.4417 72.495 58.4465C79.307 58.4678 86.1215 58.5082 92.9335 58.3942C95.5704 58.349 97.6889 56.9967 99.182 54.8078C102.321 50.2043 100.552 44.6999 94.9807 42.0904ZM76.4824 33.4751C78.7768 33.5131 81.0737 33.4893 83.3681 33.4893C85.5841 33.4893 87.8001 33.4798 90.0161 33.4917C92.0989 33.5012 93.4851 34.8416 93.5137 36.8475C93.5422 38.794 91.9943 40.3649 89.9828 40.3697C85.47 40.384 80.9595 40.3578 76.4467 40.3911C75.7072 40.3958 75.5051 40.1914 75.5265 39.4642C75.5788 37.7649 75.5883 36.0632 75.5241 34.3639C75.4956 33.5844 75.7952 33.4632 76.4824 33.4751ZM95.2874 50.6582C94.9712 52.3908 93.887 53.3866 91.8517 53.4626C89.2077 53.5648 86.5566 53.4864 83.9078 53.4864C83.9078 53.5054 83.9078 53.5268 83.9078 53.5458C81.4565 53.5458 79.0051 53.5221 76.5537 53.5601C75.8237 53.572 75.5051 53.427 75.5265 52.5999C75.586 50.4681 75.5717 48.3338 75.5313 46.1996C75.5194 45.5175 75.7429 45.344 76.4015 45.3488C81.0665 45.3749 85.7339 45.3583 90.3989 45.3678C91.3951 45.3702 92.3581 45.5627 93.2521 46.0356C94.9522 46.9364 95.6702 48.5596 95.2874 50.6582Z" fill="#492782"/>
<path d="M108.518 67C110.028 67 111.252 65.7763 111.252 64.2668C111.252 62.7574 110.028 61.5337 108.518 61.5337C107.007 61.5337 105.783 62.7574 105.783 64.2668C105.783 65.7763 107.007 67 108.518 67Z" fill="#F3C42E"/>
</svg>
